<?xml version="1.0" encoding="iso-8859-1"?>
<!-- Generator: Adobe Illustrator 19.0.0, SVG Export Plug-In . SVG Version: 6.00 Build 0)  -->
<svg version="1.1" id="Layer_1" xmlns="http://www.w3.org/2000/svg" xmlns:xlink="http://www.w3.org/1999/xlink" x="0px" y="0px"
	 viewBox="0 0 265.343 265.343" style="enable-background:new 0 0 265.343 265.343;" xml:space="preserve">
<g>
	<polygon style="fill:#F59D00;" points="27.565,117.758 34.533,257.841 181.503,257.841 188.471,117.758 	"/>
	<circle style="fill:#FFE49C;" cx="77.891" cy="159.315" r="18.127"/>
	<circle style="fill:#FFE49C;" cx="132.67" cy="210.649" r="23.97"/>
	<g>
		<path style="fill:#F59D00;" d="M178.69,43.99c-3.28,3.28-5.31,7.8-5.31,12.81H142.2c0-13.61,5.52-25.94,14.44-34.86L178.69,43.99z
			"/>
		<path style="fill:#F59D00;" d="M191.5,7.5v31.17c-5.01,0-9.54,2.03-12.81,5.32l-22.05-22.05C165.56,13.02,177.89,7.5,191.5,7.5z"
			/>
		<path style="fill:#F59D00;" d="M226.37,21.94l-22.05,22.05c-3.27-3.29-7.81-5.32-12.82-5.32V7.5
			C205.11,7.5,217.44,13.02,226.37,21.94z"/>
		<path style="fill:#F59D00;" d="M240.81,56.8h-31.18c0-5.01-2.03-9.53-5.31-12.81l22.05-22.05
			C235.29,30.86,240.81,43.19,240.81,56.8z"/>
		<path style="fill:#F59D00;" d="M240.81,56.8c0,13.61-5.52,25.94-14.44,34.87l-22.05-22.05c3.28-3.28,5.31-7.81,5.31-12.82
			C209.63,56.8,240.81,56.8,240.81,56.8z"/>
		<path style="fill:#F59D00;" d="M226.37,91.67c-8.93,8.92-21.26,14.44-34.87,14.44V74.93c5.01,0,9.54-2.03,12.82-5.31L226.37,91.67
			z"/>
		<path style="fill:#F59D00;" d="M191.5,74.93v31.18c-13.61,0-25.94-5.52-34.86-14.44l22.05-22.05
			C181.97,72.9,186.49,74.93,191.5,74.93z"/>
		<path style="fill:#F59D00;" d="M178.69,69.62l-22.05,22.05c-8.92-8.93-14.44-21.26-14.44-34.87h31.18
			C173.38,61.81,175.41,66.34,178.69,69.62z"/>
		<path style="fill:#FFE49C;" d="M209.63,56.8c0,5.01-2.03,9.54-5.31,12.82s-7.81,5.31-12.82,5.31c-5.01,0-9.53-2.03-12.81-5.31
			s-5.31-7.81-5.31-12.82s2.03-9.53,5.31-12.81c3.27-3.29,7.8-5.32,12.81-5.32s9.55,2.03,12.82,5.32
			C207.6,47.27,209.63,51.79,209.63,56.8z"/>
	</g>
	<g>
		<path style="fill:#FFFFFF;" d="M156.64,91.67c-8.92-8.93-14.439-21.259-14.44-34.868H24.533l3.032,60.956h160.906l0.583-11.71
			C176.416,105.43,165.022,100.052,156.64,91.67z"/>
		<g>
			<path style="fill:#414042;" d="M77.891,184.942c14.131,0,25.628-11.496,25.628-25.627s-11.497-25.627-25.628-25.627
				s-25.627,11.496-25.627,25.627S63.76,184.942,77.891,184.942z M77.891,148.688c5.86,0,10.628,4.768,10.628,10.627
				s-4.767,10.627-10.628,10.627c-5.859,0-10.627-4.767-10.627-10.627S72.031,148.688,77.891,148.688z"/>
			<path style="fill:#414042;" d="M132.67,242.119c17.352,0,31.47-14.117,31.47-31.47s-14.117-31.47-31.47-31.47
				s-31.47,14.118-31.47,31.47S115.317,242.119,132.67,242.119z M132.67,194.179c9.081,0,16.47,7.389,16.47,16.47
				s-7.389,16.47-16.47,16.47s-16.47-7.388-16.47-16.47S123.589,194.179,132.67,194.179z"/>
			<path style="fill:#414042;" d="M248.311,56.8C248.311,25.369,222.83,0,191.5,0c-29.11,0-52.684,21.748-56.297,49.302H24.533
				c-4.28,0-7.704,3.584-7.491,7.873c0.53,10.645,9.46,190.176,10,201.04c0.199,3.992,3.494,7.128,7.491,7.128h146.97
				c3.997,0,7.292-3.135,7.491-7.128c0.062-1.25,7.194-144.64,7.203-144.81C225.265,111.038,248.311,86.729,248.311,56.8z
				 M225.897,80.589l-11.754-11.754c0.006-0.011,0.01-0.023,0.016-0.034c0.761-1.433,1.383-2.934,1.856-4.486
				c0.001-0.005,0.004-0.01,0.005-0.015h16.623C231.587,70.16,229.295,75.694,225.897,80.589z M157.111,33.018l11.756,11.756
				c-0.003,0.006-0.005,0.012-0.008,0.017c-0.764,1.435-1.387,2.938-1.862,4.492c-0.002,0.006-0.004,0.011-0.006,0.017h-16.624
				C151.423,43.44,153.714,37.908,157.111,33.018z M232.644,49.3h-16.625c-0.478-1.567-1.105-3.082-1.875-4.527l11.755-11.755
				C229.297,37.908,231.588,43.44,232.644,49.3z M191.5,67.43c-5.753,0-10.62-4.655-10.62-10.63c0-5.76,4.658-10.63,10.62-10.63
				c5.971,0,10.63,4.866,10.63,10.63C202.13,62.616,197.429,67.43,191.5,67.43z M150.379,64.3h16.61
				c0.002,0.006,0.004,0.011,0.006,0.017c0.473,1.55,1.094,3.048,1.853,4.48c0.007,0.013,0.012,0.026,0.019,0.039l-11.745,11.745
				C153.704,75.665,151.435,70.174,150.379,64.3z M167.726,91.19l11.747-11.747c0.01,0.005,0.02,0.009,0.03,0.014
				c1.428,0.759,2.922,1.378,4.468,1.852c0.01,0.003,0.019,0.007,0.029,0.01v16.61c-0.109-0.02-0.22-0.034-0.329-0.055
				c-0.014-0.003-0.027-0.006-0.04-0.008C177.922,96.777,172.532,94.519,167.726,91.19z M203.543,34.16
				c-0.012-0.007-0.026-0.011-0.038-0.018c-1.439-0.765-2.92-1.38-4.485-1.858c-0.007-0.002-0.013-0.005-0.02-0.007v-16.61
				c5.86,1.056,11.395,3.349,16.289,6.747L203.543,34.16z M184,32.279c-0.001,0-0.002,0.001-0.003,0.001
				c-1.57,0.478-3.086,1.107-4.531,1.879l-11.748-11.748c4.891-3.398,10.422-5.689,16.282-6.744L184,32.279L184,32.279z
				 M135.189,64.302c3.953,30.168,27.594,41.096,28.594,42.096c2.701,1.515,5.51,2.813,8.417,3.86H34.701l-2.285-45.957
				L135.189,64.302L135.189,64.302z M174.367,250.341H41.669l-6.222-125.083h145.141L174.367,250.341z M199,97.943V81.321
				c0.011-0.003,0.022-0.008,0.033-0.012c1.566-0.479,3.029-1.084,4.503-1.866l11.753,11.753
				C210.395,94.594,204.86,96.887,199,97.943z"/>
		</g>
	</g>
</g>
<g>
</g>
<g>
</g>
<g>
</g>
<g>
</g>
<g>
</g>
<g>
</g>
<g>
</g>
<g>
</g>
<g>
</g>
<g>
</g>
<g>
</g>
<g>
</g>
<g>
</g>
<g>
</g>
<g>
</g>
</svg>
